<svg width="1280" height="267" viewBox="0 0 1280 267" fill="none" xmlns="http://www.w3.org/2000/svg">
<g clip-path="url(#clip0_806_2)">
<g clip-path="url(#clip1_806_2)">
<circle cx="122.566" cy="135.798" r="18.5491" fill="white" stroke="#121417" stroke-width="9.27454"/>
<path d="M79.4679 30.1885C106.653 17.0071 138.525 17.7338 165.082 32.1405L166.048 32.6649C186.169 43.5804 201.434 61.6817 208.796 83.3565V83.3565V83.3565C220.121 117.1 202.01 153.645 168.3 165.07L165.267 166.098C156.777 168.975 148.468 161.318 150.644 152.621L153.495 141.227C158.138 122.67 144.856 104.433 125.768 103.16L122.164 102.919L15.8501 124.212L16.7448 111.889C18.0066 94.509 24.5688 77.9343 35.5461 64.401L38.0045 61.3701C47.7583 49.3451 60.0356 39.6106 73.9677 32.8554L79.4679 30.1885Z" fill="#9CC6E5"/>
<path d="M15.8497 122.543L17.2301 112.461C22.4611 74.2572 63.8813 52.691 98.1788 70.3131L99.3828 70.9317C110.457 76.6217 119.136 86.0796 123.855 97.6013V97.6013C124.645 99.5318 123.94 101.751 122.179 102.871L106.413 112.897C102.038 115.679 98.0106 118.973 94.415 122.707V122.707C76.4262 141.393 71.2066 168.956 81.1179 192.925L82.1748 195.482C92.5666 220.613 116.66 237.375 143.836 238.381L160.112 238.984C160.678 239.005 160.758 239.813 160.207 239.944L157.823 240.514C82.9945 258.393 11.9747 199.379 15.8497 122.543V122.543Z" fill="#78AED6"/>
<path d="M331.618 163.403H277.294L266.585 188.547H245.786L294.678 79.8989H314.545L363.592 188.547H342.483L331.618 163.403ZM324.944 147.571L304.456 100.076L284.124 147.571H324.944ZM457.051 105.664V175.975C457.051 205.154 442.151 219.744 412.35 219.744C404.383 219.744 396.829 218.71 389.689 216.64C382.55 214.674 376.652 211.777 371.995 207.948L380.687 193.358C384.309 196.359 388.861 198.739 394.346 200.498C399.933 202.361 405.573 203.292 411.264 203.292C420.369 203.292 427.043 201.222 431.286 197.084C435.528 192.945 437.65 186.633 437.65 178.148V173.802C434.338 177.423 430.303 180.165 425.543 182.028C420.783 183.891 415.558 184.822 409.867 184.822C402.003 184.822 394.863 183.166 388.448 179.855C382.136 176.44 377.117 171.681 373.392 165.576C369.77 159.471 367.96 152.486 367.96 144.622C367.96 136.758 369.77 129.825 373.392 123.824C377.117 117.719 382.136 113.011 388.448 109.699C394.863 106.388 402.003 104.733 409.867 104.733C415.868 104.733 421.301 105.716 426.164 107.682C431.131 109.648 435.27 112.648 438.581 116.684V105.664H457.051ZM412.816 168.369C420.162 168.369 426.164 166.196 430.82 161.851C435.58 157.401 437.96 151.658 437.96 144.622C437.96 137.689 435.58 132.05 430.82 127.704C426.164 123.358 420.162 121.185 412.816 121.185C405.366 121.185 399.261 123.358 394.501 127.704C389.844 132.05 387.516 137.689 387.516 144.622C387.516 151.658 389.844 157.401 394.501 161.851C399.261 166.196 405.366 168.369 412.816 168.369ZM519.809 189.633C511.427 189.633 503.874 187.823 497.148 184.201C490.422 180.579 485.145 175.561 481.316 169.145C477.591 162.627 475.729 155.28 475.729 147.105C475.729 138.931 477.591 131.636 481.316 125.221C485.145 118.805 490.422 113.787 497.148 110.165C503.874 106.544 511.427 104.733 519.809 104.733C528.293 104.733 535.899 106.544 542.625 110.165C549.35 113.787 554.576 118.805 558.301 125.221C562.13 131.636 564.044 138.931 564.044 147.105C564.044 155.28 562.13 162.627 558.301 169.145C554.576 175.561 549.35 180.579 542.625 184.201C535.899 187.823 528.293 189.633 519.809 189.633ZM519.809 173.026C526.948 173.026 532.846 170.646 537.503 165.886C542.159 161.126 544.487 154.866 544.487 147.105C544.487 139.345 542.159 133.085 537.503 128.325C532.846 123.565 526.948 121.185 519.809 121.185C512.669 121.185 506.771 123.565 502.114 128.325C497.562 133.085 495.285 139.345 495.285 147.105C495.285 154.866 497.562 161.126 502.114 165.886C506.771 170.646 512.669 173.026 519.809 173.026ZM588.96 72.2935C592.582 72.2935 595.582 73.4835 597.962 75.8634C600.342 78.2433 601.532 81.2958 601.532 85.0208C601.532 86.8834 601.274 88.6942 600.756 90.4532C600.342 92.2123 599.463 94.8509 598.118 98.369L590.047 120.409H577.474L583.683 96.5065C581.406 95.6787 579.596 94.2818 578.251 92.3158C577.009 90.2463 576.388 87.8147 576.388 85.0208C576.388 81.2958 577.578 78.2433 579.958 75.8634C582.338 73.4835 585.339 72.2935 588.96 72.2935ZM667.053 79.8989C676.469 79.8989 684.644 81.451 691.577 84.5552C698.613 87.6594 703.994 92.1088 707.719 97.9034C711.444 103.698 713.306 110.579 713.306 118.547C713.306 126.411 711.444 133.292 707.719 139.19C703.994 144.984 698.613 149.434 691.577 152.538C684.644 155.642 676.469 157.194 667.053 157.194H642.53V188.547H622.352V79.8989H667.053ZM666.122 140.121C674.917 140.121 681.591 138.258 686.144 134.533C690.697 130.808 692.974 125.479 692.974 118.547C692.974 111.614 690.697 106.285 686.144 102.56C681.591 98.8347 674.917 96.9721 666.122 96.9721H642.53V140.121H666.122ZM749.306 117.77C754.893 109.079 764.723 104.733 778.796 104.733V123.203C777.14 122.892 775.64 122.737 774.295 122.737C766.741 122.737 760.843 124.962 756.601 129.411C752.358 133.757 750.237 140.069 750.237 148.347V188.547H730.835V105.664H749.306V117.77ZM831.747 189.633C823.366 189.633 815.812 187.823 809.086 184.201C802.36 180.579 797.083 175.561 793.255 169.145C789.53 162.627 787.667 155.28 787.667 147.105C787.667 138.931 789.53 131.636 793.255 125.221C797.083 118.805 802.36 113.787 809.086 110.165C815.812 106.544 823.366 104.733 831.747 104.733C840.232 104.733 847.837 106.544 854.563 110.165C861.289 113.787 866.515 118.805 870.24 125.221C874.068 131.636 875.982 138.931 875.982 147.105C875.982 155.28 874.068 162.627 870.24 169.145C866.515 175.561 861.289 180.579 854.563 184.201C847.837 187.823 840.232 189.633 831.747 189.633ZM831.747 173.026C838.887 173.026 844.785 170.646 849.441 165.886C854.098 161.126 856.426 154.866 856.426 147.105C856.426 139.345 854.098 133.085 849.441 128.325C844.785 123.565 838.887 121.185 831.747 121.185C824.607 121.185 818.709 123.565 814.053 128.325C809.5 133.085 807.224 139.345 807.224 147.105C807.224 154.866 809.5 161.126 814.053 165.886C818.709 170.646 824.607 173.026 831.747 173.026ZM885.998 219.744C877.824 219.744 871.615 218.141 867.373 214.933L872.961 200.498C875.858 202.671 879.635 203.758 884.291 203.758C887.913 203.758 890.655 202.619 892.517 200.343C894.483 198.17 895.466 194.911 895.466 190.565V105.664H914.868V190.099C914.868 199.308 912.333 206.551 907.262 211.829C902.192 217.106 895.104 219.744 885.998 219.744ZM905.089 92.0054C901.571 92.0054 898.622 90.9189 896.242 88.7459C893.862 86.4695 892.672 83.6757 892.672 80.3645C892.672 77.0533 893.862 74.3113 896.242 72.1383C898.622 69.8619 901.571 68.7237 905.089 68.7237C908.608 68.7237 911.557 69.8101 913.936 71.9831C916.316 74.0526 917.506 76.6912 917.506 79.8989C917.506 83.3135 916.316 86.2108 913.936 88.5907C911.66 90.8671 908.711 92.0054 905.089 92.0054ZM1018.23 147.571C1018.23 148.916 1018.12 150.83 1017.92 153.314H952.882C954.021 159.419 956.97 164.282 961.729 167.904C966.593 171.422 972.594 173.181 979.734 173.181C988.84 173.181 996.342 170.18 1002.24 164.179L1012.64 176.13C1008.91 180.579 1004.21 183.942 998.515 186.219C992.823 188.495 986.408 189.633 979.268 189.633C970.163 189.633 962.143 187.823 955.211 184.201C948.278 180.579 942.897 175.561 939.069 169.145C935.344 162.627 933.481 155.28 933.481 147.105C933.481 139.034 935.292 131.791 938.913 125.376C942.638 118.857 947.76 113.787 954.279 110.165C960.798 106.544 968.145 104.733 976.319 104.733C984.39 104.733 991.582 106.544 997.894 110.165C1004.31 113.683 1009.28 118.702 1012.79 125.221C1016.42 131.636 1018.23 139.086 1018.23 147.571ZM976.319 120.254C970.111 120.254 964.834 122.116 960.488 125.841C956.245 129.463 953.658 134.326 952.727 140.431H999.756C998.928 134.43 996.393 129.567 992.151 125.841C987.908 122.116 982.631 120.254 976.319 120.254ZM1074.89 189.633C1066.3 189.633 1058.59 187.823 1051.76 184.201C1044.93 180.579 1039.6 175.561 1035.78 169.145C1031.95 162.627 1030.03 155.28 1030.03 147.105C1030.03 138.931 1031.95 131.636 1035.78 125.221C1039.6 118.805 1044.88 113.787 1051.61 110.165C1058.44 106.544 1066.2 104.733 1074.89 104.733C1083.06 104.733 1090.2 106.388 1096.31 109.699C1102.52 113.011 1107.17 117.77 1110.28 123.979L1095.38 132.671C1093 128.842 1090 125.997 1086.38 124.134C1082.86 122.168 1078.98 121.185 1074.73 121.185C1067.49 121.185 1061.49 123.565 1056.73 128.325C1051.97 132.981 1049.59 139.241 1049.59 147.105C1049.59 154.969 1051.92 161.281 1056.57 166.041C1061.33 170.698 1067.39 173.026 1074.73 173.026C1078.98 173.026 1082.86 172.094 1086.38 170.232C1090 168.266 1093 165.369 1095.38 161.54L1110.28 170.232C1107.07 176.44 1102.36 181.252 1096.15 184.667C1090.05 187.978 1082.96 189.633 1074.89 189.633ZM1177.93 184.046C1175.66 185.908 1172.86 187.305 1169.55 188.236C1166.34 189.168 1162.93 189.633 1159.31 189.633C1150.2 189.633 1143.17 187.253 1138.2 182.494C1133.23 177.734 1130.75 170.801 1130.75 161.695V121.806H1117.09V106.285H1130.75V87.349H1150.15V106.285H1172.35V121.806H1150.15V161.23C1150.15 165.265 1151.13 168.369 1153.1 170.542C1155.07 172.612 1157.91 173.647 1161.64 173.647C1165.98 173.647 1169.6 172.508 1172.5 170.232L1177.93 184.046ZM1219.5 189.633C1212.78 189.633 1206.21 188.754 1199.79 186.995C1193.38 185.236 1188.25 183.011 1184.43 180.321L1191.88 165.576C1195.6 168.059 1200.05 170.077 1205.22 171.629C1210.5 173.077 1215.67 173.802 1220.74 173.802C1232.33 173.802 1238.13 170.749 1238.13 164.644C1238.13 161.747 1236.63 159.729 1233.63 158.591C1230.73 157.453 1226.02 156.366 1219.5 155.332C1212.67 154.297 1207.09 153.107 1202.74 151.762C1198.5 150.417 1194.77 148.088 1191.56 144.777C1188.46 141.363 1186.91 136.655 1186.91 130.653C1186.91 122.789 1190.17 116.529 1196.69 111.872C1203.31 107.113 1212.21 104.733 1223.38 104.733C1229.07 104.733 1234.77 105.405 1240.46 106.75C1246.15 107.992 1250.8 109.699 1254.43 111.872L1246.98 126.618C1239.94 122.479 1232.02 120.409 1223.23 120.409C1217.54 120.409 1213.19 121.289 1210.19 123.048C1207.29 124.703 1205.84 126.928 1205.84 129.722C1205.84 132.826 1207.4 135.051 1210.5 136.396C1213.71 137.638 1218.62 138.827 1225.25 139.966C1231.87 141 1237.3 142.19 1241.54 143.536C1245.79 144.881 1249.41 147.157 1252.41 150.365C1255.51 153.573 1257.06 158.125 1257.06 164.023C1257.06 171.784 1253.7 177.992 1246.98 182.649C1240.25 187.305 1231.09 189.633 1219.5 189.633Z" fill="#121417"/>
</g>
</g>
<defs>
<clipPath id="clip0_806_2">
<rect width="1280" height="267" fill="white"/>
</clipPath>
<clipPath id="clip1_806_2">
<rect width="1280.62" height="240" fill="white" transform="translate(0 13)"/>
</clipPath>
</defs>
</svg>
